<svg xmlns="http://www.w3.org/2000/svg" xmlns:xlink="http://www.w3.org/1999/xlink" width="200" height="150" viewBox="0 0 200 150"><rect width="100%" height="100%" fill="#000000"/><path d="M46.69 81.66L51.70 81.66Q52.24 81.66 52.55 81.96Q52.87 82.26 52.87 82.76L52.87 82.76L52.87 84.76L39.48 84.76L39.48 83.65Q39.48 83.32 39.62 82.94Q39.76 82.57 40.07 82.28L40.07 82.28L46 76.34Q46.74 75.58 47.33 74.89Q47.92 74.20 48.31 73.53Q48.70 72.85 48.91 72.16Q49.12 71.46 49.12 70.69L49.12 70.69Q49.12 69.99 48.92 69.46Q48.71 68.92 48.34 68.56Q47.97 68.20 47.45 68.01Q46.93 67.83 46.28 67.83L46.28 67.83Q45.69 67.83 45.18 68.00Q44.68 68.17 44.29 68.47Q43.89 68.78 43.62 69.18Q43.35 69.59 43.22 70.07L43.22 70.07Q42.99 70.69 42.63 70.90Q42.26 71.10 41.57 70.99L41.57 70.99L39.82 70.68Q40.02 69.28 40.60 68.22Q41.18 67.16 42.05 66.45Q42.92 65.74 44.05 65.38Q45.18 65.02 46.47 65.02L46.47 65.02Q47.82 65.02 48.94 65.42Q50.06 65.82 50.86 66.55Q51.66 67.28 52.10 68.30Q52.55 69.33 52.55 70.59L52.55 70.59Q52.55 71.67 52.23 72.58Q51.91 73.50 51.38 74.34Q50.85 75.18 50.13 75.96Q49.42 76.74 48.63 77.55L48.63 77.55L44.23 82.05Q44.87 81.86 45.49 81.76Q46.12 81.66 46.69 81.66L46.69 81.66ZM69.10 75L69.10 75Q69.10 77.55 68.55 79.43Q68.00 81.32 67.04 82.55Q66.07 83.77 64.76 84.38Q63.44 84.98 61.92 84.98L61.92 84.98Q60.39 84.98 59.09 84.38Q57.79 83.77 56.83 82.55Q55.87 81.32 55.33 79.43Q54.79 77.55 54.79 75L54.79 75Q54.79 72.43 55.33 70.56Q55.87 68.68 56.83 67.45Q57.79 66.22 59.09 65.62Q60.39 65.02 61.92 65.02L61.92 65.02Q63.44 65.02 64.76 65.62Q66.07 66.22 67.04 67.45Q68.00 68.68 68.55 70.56Q69.10 72.43 69.10 75ZM65.66 75L65.66 75Q65.66 72.88 65.35 71.49Q65.03 70.10 64.52 69.28Q64.00 68.45 63.32 68.12Q62.65 67.79 61.92 67.79L61.92 67.79Q61.20 67.79 60.53 68.12Q59.86 68.45 59.35 69.28Q58.84 70.10 58.53 71.49Q58.23 72.88 58.23 75L58.23 75Q58.23 77.12 58.53 78.51Q58.84 79.90 59.35 80.72Q59.86 81.55 60.53 81.88Q61.20 82.21 61.92 82.21L61.92 82.21Q62.65 82.21 63.32 81.88Q64.00 81.55 64.52 80.72Q65.03 79.90 65.35 78.51Q65.66 77.12 65.66 75ZM84.76 75L84.76 75Q84.76 77.55 84.21 79.43Q83.66 81.32 82.70 82.55Q81.73 83.77 80.42 84.38Q79.10 84.98 77.58 84.98L77.58 84.98Q76.05 84.98 74.75 84.38Q73.45 83.77 72.49 82.55Q71.53 81.32 70.99 79.43Q70.45 77.55 70.45 75L70.45 75Q70.45 72.43 70.99 70.56Q71.53 68.68 72.49 67.45Q73.45 66.22 74.75 65.62Q76.05 65.02 77.58 65.02L77.58 65.02Q79.10 65.02 80.42 65.62Q81.73 66.22 82.70 67.45Q83.66 68.68 84.21 70.56Q84.76 72.43 84.76 75ZM81.32 75L81.32 75Q81.32 72.88 81.01 71.49Q80.69 70.10 80.18 69.28Q79.66 68.45 78.98 68.12Q78.31 67.79 77.58 67.79L77.58 67.79Q76.86 67.79 76.19 68.12Q75.52 68.45 75.01 69.28Q74.50 70.10 74.19 71.49Q73.89 72.88 73.89 75L73.89 75Q73.89 77.12 74.19 78.51Q74.50 79.90 75.01 80.72Q75.52 81.55 76.19 81.88Q76.86 82.21 77.58 82.21L77.58 82.21Q78.31 82.21 78.98 81.88Q79.66 81.55 80.18 80.72Q80.69 79.90 81.01 78.51Q81.32 77.12 81.32 75ZM106.20 80.29L104.43 82.03L99.85 77.46L95.23 82.06L93.47 80.32L98.08 75.69L93.68 71.29L95.44 69.53L99.84 73.93L104.21 69.56L105.99 71.31L101.61 75.70L106.20 80.29ZM124.68 82.26L128.19 82.26L128.19 84.76L117.39 84.76L117.39 82.26L121.34 82.26L121.34 70.88Q121.34 70.21 121.38 69.49L121.38 69.49L118.58 71.84Q118.33 72.03 118.10 72.08Q117.86 72.12 117.65 72.08Q117.44 72.04 117.28 71.94Q117.12 71.84 117.04 71.72L117.04 71.72L115.98 70.27L121.94 65.21L124.68 65.21L124.68 82.26ZM136.04 68.26L135.36 72.33Q136.00 72.19 136.60 72.13Q137.19 72.07 137.75 72.07L137.75 72.07Q139.28 72.07 140.46 72.53Q141.63 72.99 142.43 73.80Q143.23 74.61 143.63 75.70Q144.04 76.78 144.04 78.04L144.04 78.04Q144.04 79.59 143.49 80.87Q142.94 82.15 141.97 83.07Q141.00 83.98 139.67 84.48Q138.34 84.98 136.77 84.98L136.77 84.98Q135.86 84.98 135.03 84.79Q134.21 84.60 133.49 84.28Q132.76 83.96 132.15 83.55Q131.54 83.14 131.05 82.68L131.05 82.68L132.08 81.26Q132.40 80.80 132.93 80.80L132.93 80.80Q133.26 80.80 133.61 81.02Q133.97 81.24 134.42 81.49Q134.87 81.75 135.48 81.97Q136.10 82.18 136.96 82.18L136.96 82.18Q137.88 82.18 138.58 81.88Q139.28 81.59 139.75 81.05Q140.22 80.52 140.45 79.79Q140.69 79.05 140.69 78.19L140.69 78.19Q140.69 76.59 139.76 75.70Q138.84 74.80 137.03 74.80L137.03 74.80Q135.64 74.80 134.18 75.31L134.18 75.31L132.10 74.72L133.72 65.24L143.36 65.24L143.36 66.66Q143.36 67.37 142.92 67.82Q142.47 68.26 141.40 68.26L141.40 68.26L136.04 68.26ZM160.52 75L160.52 75Q160.52 77.55 159.97 79.43Q159.43 81.32 158.46 82.55Q157.50 83.77 156.18 84.38Q154.86 84.98 153.34 84.98L153.34 84.98Q151.81 84.98 150.51 84.38Q149.21 83.77 148.25 82.55Q147.29 81.32 146.75 79.43Q146.21 77.55 146.21 75L146.21 75Q146.21 72.43 146.75 70.56Q147.29 68.68 148.25 67.45Q149.21 66.22 150.51 65.62Q151.81 65.02 153.34 65.02L153.34 65.02Q154.86 65.02 156.18 65.62Q157.50 66.22 158.46 67.45Q159.43 68.68 159.97 70.56Q160.52 72.43 160.52 75ZM157.08 75L157.08 75Q157.08 72.88 156.77 71.49Q156.46 70.10 155.94 69.28Q155.42 68.45 154.74 68.12Q154.07 67.79 153.34 67.79L153.34 67.79Q152.62 67.79 151.95 68.12Q151.29 68.45 150.77 69.28Q150.26 70.10 149.96 71.49Q149.65 72.88 149.65 75L149.65 75Q149.65 77.12 149.96 78.51Q150.26 79.90 150.77 80.72Q151.29 81.55 151.95 81.88Q152.62 82.21 153.34 82.21L153.34 82.21Q154.07 82.21 154.74 81.88Q155.42 81.55 155.94 80.72Q156.46 79.90 156.77 78.51Q157.08 77.12 157.08 75Z" fill="#FFFFFF"/></svg>